<?xml version="1.0" encoding="utf-8"?>
<!-- Generator: Adobe Illustrator 23.0.1, SVG Export Plug-In . SVG Version: 6.00 Build 0)  -->
<svg version="1.1" id="Layer_1" xmlns="http://www.w3.org/2000/svg" xmlns:xlink="http://www.w3.org/1999/xlink" x="0px" y="0px"
	 viewBox="0 0 324.8 309.9" style="enable-background:new 0 0 324.8 309.9;" xml:space="preserve">
<g>
	<path d="M0,88c29.2,0.1,91.4,0.2,94.1,0.2c0,13.2,0,26,0,38.7c0,12.8,0,25.7,0,39.4c2-1.1,3.6-1.9,5-2.8
		c10.7-6.7,21.5-13.3,32.1-20.2c3.6-2.4,6.4-2.2,9.9,0.1c11.8,7.7,23.9,15.1,36.6,23c0-26.2,0-51.8,0-77.7c31.6,0,62.6,0,94,0
		c0,23.6,0,47.2,0,71.6c-32.3-3.9-59.8,4.9-80.2,31.5c-20.4,26.7-22,55.5-8.9,86.5c-2.7,0.2-4.8,0.4-6.8,0.4c-44.5,0-89,0-133.5,0
		C4.9,278.7,0.2,247.2,0,247C0,194,0,141,0,88z"/>
	<path d="M112,0c-5.5,24.8-10.9,49.6-16.4,74.7c-31.4,0-62.8,0-94.8,0c0.6-1.5,1-2.8,1.7-4.1c8.9-16.7,17.7-33.5,26.7-50.2
		c2-3.6,4.4-7.1,6.7-10.5C39.7,4.2,45.6,1.6,52,0C72,0,92,0,112,0z"/>
	<path d="M220,0c9.9,1.7,16.1,8,20.6,16.5c10.1,18.7,20.2,37.5,30.2,56.2c0.3,0.5,0.3,1.2,0.6,2.2c-1.7,0.1-3.1,0.3-4.6,0.3
		c-28,0.1-55.9,0-83.9,0.2c-4.7,0-6.8-1.5-7.8-6.1c-4.5-21.6-9.3-43.2-13.9-64.8C161,3,161.1,1.5,161,0C180.7,0,200.3,0,220,0z"/>
</g>
<g>
	<path d="M256.8,173.9c-37.6,0-68,30.4-68,68s30.4,68,68,68c37.6,0,68-30.4,68-68S294.3,173.9,256.8,173.9z M289.8,258.8
		c-7.4,6.7-14.8,13.4-22.3,20c-7.5,6.7-12.4,6.9-20.2,0.4c-7.9-6.6-15.6-13.5-23.3-20.4c-4.6-4.1-5.6-8.4-2.9-12.2
		c2.7-3.7,6.5-4.2,12-1.4c4.1,2,8.1,4,12.5,6.2c1.1-14,2.2-27.3,3.2-40.5c0.7-8.8,2.5-11.5,7.9-11.5c5.4,0,7.4,3,8,11.5
		c1,13.3,2,26.5,3.1,40.7c4.6-2.3,8.5-4.4,12.5-6.4c5.5-2.7,9.4-2.2,12,1.4C295.3,250.4,294.4,254.7,289.8,258.8z"/>
</g>
</svg>
